<svg width="225" height="62" viewBox="0 0 225 62" fill="none" xmlns="http://www.w3.org/2000/svg">
<path d="M1.8 19H4.536V11.704H10.056V9.472H4.536V4.552H11.616V2.32H1.8V19ZM14.1516 19H16.8876V5.776H14.1516V19ZM15.5436 4.024C16.5036 4.024 17.2716 3.256 17.2716 2.272C17.2716 1.288 16.5036 0.519999 15.5436 0.519999C14.5596 0.519999 13.7916 1.288 13.7916 2.272C13.7916 3.256 14.5596 4.024 15.5436 4.024ZM29.8637 19H32.5757V11.2C32.5757 7.504 30.2477 5.56 27.1517 5.56C25.5677 5.56 24.1037 6.208 23.2157 7.288V5.776H20.4797V19H23.2157V11.608C23.2157 9.184 24.5357 7.936 26.5517 7.936C28.5437 7.936 29.8637 9.184 29.8637 11.608V19ZM35.1536 12.328C35.1536 16.408 37.9136 19.216 41.3936 19.216C43.5536 19.216 45.1376 18.208 45.9776 17.008V19H48.7376V1.24H45.9776V7.624C44.9696 6.376 43.1456 5.56 41.4176 5.56C37.9136 5.56 35.1536 8.248 35.1536 12.328ZM45.9776 12.376C45.9776 15.232 44.0336 16.84 41.9696 16.84C39.9296 16.84 37.9616 15.184 37.9616 12.328C37.9616 9.472 39.9296 7.936 41.9696 7.936C44.0336 7.936 45.9776 9.544 45.9776 12.376ZM57.6536 10.624C57.6536 15.64 61.4696 19.144 66.1736 19.144C69.6536 19.144 72.6536 17.416 73.9256 14.152H70.6376C69.7496 15.928 68.1656 16.768 66.1736 16.768C62.8616 16.768 60.4616 14.392 60.4616 10.624C60.4616 6.856 62.8616 4.504 66.1736 4.504C68.1656 4.504 69.7496 5.344 70.6376 7.12H73.9256C72.6536 3.856 69.6536 2.104 66.1736 2.104C61.4696 2.104 57.6536 5.632 57.6536 10.624ZM89.7281 12.376C89.7281 8.224 86.7521 5.56 82.9841 5.56C79.2161 5.56 76.2401 8.224 76.2401 12.376C76.2401 16.528 79.0961 19.216 82.8641 19.216C86.6561 19.216 89.7281 16.528 89.7281 12.376ZM79.0241 12.376C79.0241 9.376 80.8721 7.936 82.9361 7.936C84.9761 7.936 86.9201 9.376 86.9201 12.376C86.9201 15.376 84.9041 16.84 82.8641 16.84C80.8001 16.84 79.0241 15.376 79.0241 12.376ZM100.857 5.776H91.6888V8.008H97.7128L91.6888 16.768V19H100.857V16.768H94.8568L100.857 8.008V5.776ZM108.938 15.856L105.218 5.776H102.17L107.378 18.784L104.69 25.216H107.522L115.634 5.776H112.802L108.938 15.856ZM134.517 19H137.253V2.32H134.517V9.472H126.669V2.32H123.933V19H126.669V11.704H134.517V19ZM153.455 12.376C153.455 8.224 150.479 5.56 146.711 5.56C142.943 5.56 139.967 8.224 139.967 12.376C139.967 16.528 142.823 19.216 146.591 19.216C150.383 19.216 153.455 16.528 153.455 12.376ZM142.751 12.376C142.751 9.376 144.599 7.936 146.663 7.936C148.703 7.936 150.647 9.376 150.647 12.376C150.647 15.376 148.631 16.84 146.591 16.84C144.527 16.84 142.751 15.376 142.751 12.376ZM168.135 5.776H165.399V13.144C165.399 15.568 164.079 16.816 162.063 16.816C160.071 16.816 158.751 15.568 158.751 13.144V5.776H156.039V13.552C156.039 17.248 158.391 19.192 161.487 19.192C163.047 19.192 164.535 18.544 165.399 17.416V19H168.135V5.776ZM181.609 15.304C181.465 10.528 174.001 12.016 174.001 9.352C174.001 8.464 174.769 7.864 176.233 7.864C177.721 7.864 178.609 8.656 178.705 9.808H181.441C181.297 7.168 179.329 5.56 176.329 5.56C173.209 5.56 171.241 7.264 171.241 9.376C171.241 14.224 178.921 12.736 178.921 15.328C178.921 16.24 178.081 16.912 176.497 16.912C174.985 16.912 173.953 16.024 173.857 14.944H171.025C171.145 17.344 173.377 19.216 176.545 19.216C179.665 19.216 181.609 17.536 181.609 15.304ZM190.134 7.864C192.174 7.864 193.782 9.16 193.83 11.2H186.51C186.798 9.112 188.286 7.864 190.134 7.864ZM196.326 15.064H193.374C192.87 16.096 191.934 16.912 190.254 16.912C188.238 16.912 186.678 15.592 186.486 13.408H196.59C196.662 12.952 196.686 12.52 196.686 12.064C196.686 8.176 194.022 5.56 190.254 5.56C186.342 5.56 183.654 8.224 183.654 12.376C183.654 16.528 186.462 19.216 190.254 19.216C193.494 19.216 195.582 17.368 196.326 15.064ZM2.232 51.328C2.232 54.016 3.696 55 6.048 55H8.208V52.72H6.528C5.376 52.72 4.992 52.312 4.992 51.328V44.008H8.208V41.776H4.992V38.488H2.232V41.776H0.672V44.008H2.232V51.328ZM23.3297 48.376C23.3297 44.224 20.3537 41.56 16.5857 41.56C12.8177 41.56 9.84169 44.224 9.84169 48.376C9.84169 52.528 12.6977 55.216 16.4657 55.216C20.2577 55.216 23.3297 52.528 23.3297 48.376ZM12.6257 48.376C12.6257 45.376 14.4737 43.936 16.5377 43.936C18.5777 43.936 20.5217 45.376 20.5217 48.376C20.5217 51.376 18.5057 52.84 16.4657 52.84C14.4017 52.84 12.6257 51.376 12.6257 48.376ZM43.5248 50.272C43.5248 44.176 34.6928 46.528 34.6928 42.76C34.6928 41.152 35.9168 40.384 37.5008 40.432C39.2288 40.48 40.2128 41.512 40.3088 42.64H43.3328C43.0928 39.784 40.8368 38.104 37.6448 38.104C34.2368 38.104 31.9088 39.928 31.9088 42.856C31.9088 49 40.7648 46.384 40.7648 50.416C40.7648 51.832 39.6848 52.864 37.7648 52.864C35.8688 52.864 34.9088 51.76 34.7888 50.392H31.8608C31.8608 53.344 34.4288 55.168 37.7648 55.168C41.4848 55.168 43.5248 52.768 43.5248 50.272ZM47.1851 51.328C47.1851 54.016 48.6491 55 51.0011 55H53.1611V52.72H51.4811C50.3291 52.72 49.9451 52.312 49.9451 51.328V44.008H53.1611V41.776H49.9451V38.488H47.1851V41.776H45.6251V44.008H47.1851V51.328ZM54.7708 48.328C54.7708 52.408 57.5308 55.216 60.9628 55.216C63.1708 55.216 64.7548 54.16 65.5948 53.032V55H68.3548V41.776H65.5948V43.696C64.7788 42.616 63.2428 41.56 61.0108 41.56C57.5308 41.56 54.7708 44.248 54.7708 48.328ZM65.5948 48.376C65.5948 51.232 63.6508 52.84 61.5868 52.84C59.5468 52.84 57.5788 51.184 57.5788 48.328C57.5788 45.472 59.5468 43.936 61.5868 43.936C63.6508 43.936 65.5948 45.544 65.5948 48.376ZM77.1564 51.856L73.4364 41.776H70.3884L75.5964 54.784L72.9084 61.216H75.7404L83.8524 41.776H81.0204L77.1564 51.856ZM91.2396 48.328C91.2396 52.408 93.9996 55.216 97.4316 55.216C99.6396 55.216 101.224 54.16 102.064 53.032V55H104.824V41.776H102.064V43.696C101.248 42.616 99.7116 41.56 97.4796 41.56C93.9996 41.56 91.2396 44.248 91.2396 48.328ZM102.064 48.376C102.064 51.232 100.12 52.84 98.0556 52.84C96.0156 52.84 94.0476 51.184 94.0476 48.328C94.0476 45.472 96.0156 43.936 98.0556 43.936C100.12 43.936 102.064 45.544 102.064 48.376ZM117.801 55H120.513V47.2C120.513 43.504 118.185 41.56 115.089 41.56C113.505 41.56 112.041 42.208 111.153 43.288V41.776H108.417V55H111.153V47.608C111.153 45.184 112.473 43.936 114.489 43.936C116.481 43.936 117.801 45.184 117.801 47.608V55ZM123.091 48.328C123.091 52.408 125.851 55.216 129.331 55.216C131.491 55.216 133.075 54.208 133.915 53.008V55H136.675V37.24H133.915V43.624C132.907 42.376 131.083 41.56 129.355 41.56C125.851 41.56 123.091 44.248 123.091 48.328ZM133.915 48.376C133.915 51.232 131.971 52.84 129.907 52.84C127.867 52.84 125.899 51.184 125.899 48.328C125.899 45.472 127.867 43.936 129.907 43.936C131.971 43.936 133.915 45.544 133.915 48.376ZM157.087 55H159.823V38.32H157.087V45.472H149.239V38.32H146.503V55H149.239V47.704H157.087V55ZM162.513 48.328C162.513 52.408 165.273 55.216 168.705 55.216C170.913 55.216 172.497 54.16 173.337 53.032V55H176.097V41.776H173.337V43.696C172.521 42.616 170.985 41.56 168.753 41.56C165.273 41.56 162.513 44.248 162.513 48.328ZM173.337 48.376C173.337 51.232 171.393 52.84 169.329 52.84C167.289 52.84 165.321 51.184 165.321 48.328C165.321 45.472 167.289 43.936 169.329 43.936C171.393 43.936 173.337 45.544 173.337 48.376ZM182.427 43.72V41.776H179.691V61.288H182.427V53.08C183.291 54.112 184.851 55.216 187.035 55.216C190.515 55.216 193.251 52.408 193.251 48.328C193.251 44.248 190.515 41.56 187.035 41.56C184.875 41.56 183.267 42.616 182.427 43.72ZM190.467 48.328C190.467 51.184 188.499 52.84 186.435 52.84C184.395 52.84 182.427 51.232 182.427 48.376C182.427 45.544 184.395 43.936 186.435 43.936C188.499 43.936 190.467 45.472 190.467 48.328ZM198.692 43.72V41.776H195.956V61.288H198.692V53.08C199.556 54.112 201.116 55.216 203.3 55.216C206.78 55.216 209.516 52.408 209.516 48.328C209.516 44.248 206.78 41.56 203.3 41.56C201.14 41.56 199.532 42.616 198.692 43.72ZM206.732 48.328C206.732 51.184 204.764 52.84 202.7 52.84C200.66 52.84 198.692 51.232 198.692 48.376C198.692 45.544 200.66 43.936 202.7 43.936C204.764 43.936 206.732 45.472 206.732 48.328ZM217.43 51.856L213.71 41.776H210.662L215.87 54.784L213.182 61.216H216.014L224.126 41.776H221.294L217.43 51.856Z" fill="black"/>
</svg>
